inDegrees=no
num_controls=7
num_derivatives=13
num_iterations=117
num_multipliers=7
num_parameters=0
num_slacks=7
num_states=26
objective=0.516825
objective_accelerations=0.040163
objective_balance=0.002270
objective_effort=0.044340
objective_height=0.418428
objective_ligament=0.011623
solver_duration=1577.868209
status=Solve_Succeeded
success=true
DataType=double
version=3
OpenSimVersion=4.5
endheader
time	/jointset/ground_pelvis/pelvis_tilt/value	/jointset/ground_pelvis/pelvis_tx/value	/jointset/ground_pelvis/pelvis_ty/value	/jointset/hip_l/hip_flexion_l/value	/jointset/hip_l/hip_adduction_l/value	/jointset/hip_l/hip_rotation_l/value	/jointset/back/lumbar_extension/value	/jointset/patellofemoral_l/patellar_flexion_l/value	/jointset/knee_l/knee_flexion_l/value	/jointset/knee_l/knee_adduction_l/value	/jointset/knee_l/knee_rotation_l/value	/jointset/ankle_l/ankle_angle_l/value	/jointset/subtalar_l/subtalar_angle_l/value	/jointset/ground_pelvis/pelvis_tilt/speed	/jointset/ground_pelvis/pelvis_tx/speed	/jointset/ground_pelvis/pelvis_ty/speed	/jointset/hip_l/hip_flexion_l/speed	/jointset/hip_l/hip_adduction_l/speed	/jointset/hip_l/hip_rotation_l/speed	/jointset/back/lumbar_extension/speed	/jointset/patellofemoral_l/patellar_flexion_l/speed	/jointset/knee_l/knee_flexion_l/speed	/jointset/knee_l/knee_adduction_l/speed	/jointset/knee_l/knee_rotation_l/speed	/jointset/ankle_l/ankle_angle_l/speed	/jointset/subtalar_l/subtalar_angle_l/speed	/forceset/tau_hip_flexion_l	/forceset/tau_hip_adduction_l	/forceset/tau_hip_rotation_l	/forceset/tau_knee_flexion_l	/forceset/tau_ankle_angle_l	/forceset/tau_subtalar_angle_l	/forceset/tau_lumbar_extension	lambda_cid13_p0	lambda_cid13_p1	lambda_cid13_p2	lambda_cid13_p3	lambda_cid13_p4	lambda_cid13_p5	lambda_cid14_p0	/jointset/ground_pelvis/pelvis_tilt/accel	/jointset/ground_pelvis/pelvis_tx/accel	/jointset/ground_pelvis/pelvis_ty/accel	/jointset/hip_l/hip_flexion_l/accel	/jointset/hip_l/hip_adduction_l/accel	/jointset/hip_l/hip_rotation_l/accel	/jointset/back/lumbar_extension/accel	/jointset/patellofemoral_l/patellar_flexion_l/accel	/jointset/knee_l/knee_flexion_l/accel	/jointset/knee_l/knee_adduction_l/accel	/jointset/knee_l/knee_rotation_l/accel	/jointset/ankle_l/ankle_angle_l/accel	/jointset/subtalar_l/subtalar_angle_l/accel	gamma_cid13_p0	gamma_cid13_p1	gamma_cid13_p2	gamma_cid13_p3	gamma_cid13_p4	gamma_cid13_p5	gamma_cid14_p0
1	-0.1672431590941133	-0.09467177752471981	0.7235272279167815	1.274203540084352	-0.3275876474787	-0.002313364211251457	-0.9599294504951387	1.164907937346105	1.164907937346045	-0.07910005888130459	-0.1745197201883097	0.136610781403984	0.01005501060322295	0.1038775289130024	0.02463290055831051	0.06831530217618849	-0.293008145980712	-9.02379872564835e-05	-0.06449375132409144	-0.001825286846320539	-0.171326905142184	-0.1713269051421822	-0.001474572136263386	-1.001009280850104e-05	0.008803323033202125	0.004065858854446463	-0.4053117809865709	0.01271298947166289	-0.004961870802335632	-0.2935681635760696	0.1105935322989163	0.04493289104657166	0.4396683462223052	-14.68582983211243	-16.92124643646511	2.218586095433233	4.214197069137525	-788.4069448622972	-72.37759971264482	-1.698689603737114	1.083376053279536	0.2066029669641516	1.278406906945712	-4.760427352880669	-0.01676709066125413	-1.410602772916008	0.3222272487964678	-4.139738156110979	-4.139738156111074	-0.2057233144452503	-0.005053269277947432	-0.7313707056533082	-0.2620558072789965	-9.223286938226863e-09	-1.349802857855942e-08	4.178652683851993e-08	1.739070222402275e-09	-2.086626781681158e-08	5.08912578014762e-08	-1.16748736339699e-08
1.01	-0.1661507474031149	-0.09441510055976676	0.724274019144157	1.271036630777632	-0.3275887746584826	-0.003028977882616518	-0.9599309264835084	1.162988214052149	1.162988214052116	-0.0791239025757918	-0.1745194477392082	0.1366623443774274	0.01008330646260905	0.1145977943409135	0.02670666212587582	0.08102579986533154	-0.3403343321334969	-0.0001287984672638751	-0.07861987696018766	0.001541599018400529	-0.2125939356919571	-0.2125939356919585	-0.003292447372937783	6.160101680592012e-05	0.001502601025508729	0.001598038883756136	-0.404189996024457	0.01278849618767709	-0.004995712968541104	-0.2933326891079731	0.1105670837631496	0.04504140765059343	0.4389852320272721	-14.64391896175414	-16.98577769684113	2.24036986606938	4.091271062865705	-787.7357773454753	-72.48450964426058	-1.738090286976145	1.065297849397505	0.2083892594911973	1.264794627053241	-4.712809040537579	0.003557282510449149	-1.412265139030011	0.3456457360136006	-4.116609781464002	-4.116609781464424	-0.1695697789281159	0.01284634459082506	-0.7304245623775224	-0.23843919717184	-1.375625758955297e-08	-2.112850618933992e-08	5.490488463415216e-08	5.233744184535364e-09	-2.524478031567752e-08	5.802294801643669e-08	-1.511205217387712e-08
1.02	-0.1649513438454676	-0.09413756067757048	0.7251474000338551	1.267397640650574	-0.327590095881229	-0.003885582346355644	-0.9598983883173541	1.160656535597283	1.160656535597278	-0.07916587505277309	-0.1745185435703126	0.1366406998079839	0.01008706530124667	0.1252759022428523	0.02880548400696007	0.09363323464066933	-0.3874243100486892	-0.0001290465800350315	-0.09269190979922733	0.004977544111268575	-0.2537179373238704	-0.2537179373238744	-0.005100328635595483	0.0001163338668076131	-0.005838185544191207	-0.000841545295245789	-0.4030682110623302	0.01286400290369447	-0.005029555134723633	-0.293097214639875	0.110540635227382	0.04514992425461826	0.4383021178322505	-14.61243794659582	-17.04813016476855	2.261403573570319	4.00294723097514	-787.2060622740148	-72.58272649732909	-1.786524003268368	1.074944548085074	0.2116150296679375	1.257794324184659	-4.713185705362143	-0.009104617214006924	-1.399784213504697	0.3360390944258052	-4.111132372539004	-4.111132372539014	-0.203724519641909	-0.008428921200493581	-0.7393836180546191	-0.2564086489413169	-1.901635538456586e-08	-3.001089421725855e-08	6.628750771265043e-08	1.008582581957514e-08	-3.135598119029456e-08	6.407581816432476e-08	-1.839500216610976e-08
1.03	-0.1636457811262342	-0.09383868688409569	0.7261463473484303	1.263289072581529	-0.3275912135772674	-0.004882570346932998	-0.9598292209647135	1.157914306042388	1.157914306042315	-0.07922594477748476	-0.1745171436592844	0.1365457022285593	0.0100666792633585	0.1357891081708602	0.03099578475973956	0.1061400766580147	-0.4342376374932277	-8.813437250663043e-05	-0.1066948022102742	0.009059566692542738	-0.2947075479809482	-0.2947075479809623	-0.006917204504898352	0.0001598423725658544	-0.01314259963532341	-0.003221655070295476	-0.403594457178954	0.01319285530995382	-0.005074175871299418	-0.2922918522051613	0.1103005228027274	0.04539899497436911	0.4395151465748835	-14.69246747309229	-17.16113232428199	2.300942800003531	3.560435455145297	-787.7220560986945	-72.68646332456852	-1.844294206360265	1.032376632232396	0.2267171286807035	1.244698863934315	-4.657659287859333	0.0116399391812102	-1.398928437993566	0.4748298805445494	-4.089807205967238	-4.089807205968781	-0.1712196075900709	0.01018789563495044	-0.723163209946423	-0.2267137347212316	-2.428387284431025e-08	-3.890605684127045e-08	7.765241921240243e-08	1.495175855331806e-08	-3.748486255854172e-08	7.011767994418148e-08	-2.167637839765184e-08
1.04	-0.1622365127443069	-0.09351711417697367	0.7272698770278641	1.258713920633267	-0.3275917319913417	-0.006019264608237923	-0.9597131241781189	1.154762794022186	1.154762794022046	-0.07930429335829045	-0.1745154192313663	0.1363782219271626	0.01002291180913293	0.146017034781822	0.0333452667364099	0.1185497076123611	-0.4807410858921516	-9.190187180823154e-06	-0.1206331619448766	0.01436343089647143	-0.3355744303850282	-0.3355744303850537	-0.008756099854825245	0.0001812372451624595	-0.02033472993861161	-0.005517828562722776	-0.4041207032955764	0.01352170771621366	-0.005118796607853516	-0.2914864897704467	0.1100604103780732	0.04564806569412035	0.4407281753175173	-14.78311301410346	-17.27199126430822	2.339815509849304	3.151214793881176	-788.383282729238	-72.78216362733306	-1.9117456729643	1.017888684675876	0.2434512744461075	1.238352111584863	-4.651209896239226	-0.001498221654527847	-1.386877678215791	0.5804074189565789	-4.086586721939436	-4.086586721939744	-0.2081284157667124	-0.01285164783282596	-0.716926860485822	-0.2396213924168424	-2.676978161815902e-08	-4.662601166326059e-08	8.615007535152442e-08	1.533664748374328e-08	-4.107061530432693e-08	7.239003469012537e-08	-2.408279892464339e-08
1.05	-0.1607262597065492	-0.09317127725529951	0.7285169656191561	1.253675294495002	-0.3275912532555378	-0.007294929534556437	-0.9595383750902243	1.151203298086869	1.151203298086728	-0.07940119609481736	-0.1745135752008438	0.1361393131522921	0.009956597717175244	0.1559970386172949	0.03584594402759503	0.1308464275844501	-0.5269287075522162	0.0001155791860504505	-0.1344839317959061	0.02074330470187943	-0.3762970317560959	-0.3762970317560868	-0.01062622811699047	0.0001874046389583805	-0.02743464998062107	-0.007728311338737004	-0.4038967142969419	0.01382940213012601	-0.00517150243552379	-0.290655537299	0.1099937044510839	0.0458983639658581	0.4412362023295255	-14.7797781536524	-17.40101497900445	2.38292780912032	2.727121478071699	-788.4037928892531	-72.90976832648344	-1.989297452272137	0.9825736788986431	0.2569530396014717	1.222085529976886	-4.59422674050929	0.02105694771363564	-1.381817367282834	0.6903150640035626	-4.060932789941395	-4.060932789936035	-0.176737397200416	0.007348047409538141	-0.7046714675202695	-0.2092621149710567	-2.916876512057357e-08	-5.430924124143756e-08	9.455812976062676e-08	1.558150379531484e-08	-4.457689528066022e-08	7.454459234125949e-08	-2.646187708586775e-08
1.06	-0.1591173031412551	-0.09279971814408425	0.7298863721281607	1.248176454452212	-0.3275892083398215	-0.008708630305132315	-0.9592951197237346	1.147237408948792	1.14723740894865	-0.07951685658711623	-0.1745116700734991	0.135829775798709	0.009868678718501941	0.1657577402893981	0.03848970464463215	0.1430132911547861	-0.5727838667970495	0.0003040457953486494	-0.148240330796388	0.02806468661411673	-0.4168530709372013	-0.4168530709371572	-0.01250765100951546	0.0001934566097034285	-0.03446044568110099	-0.009838809905845158	-0.4036727252983066	0.01413709654403824	-0.005224208263177348	-0.2898245848275523	0.1099269985240949	0.04614866223759562	0.4417442293415341	-14.78704047604242	-17.52803173174872	2.425547185458657	2.334157514263905	-788.5704855203775	-73.03097636029325	-2.077381819651928	0.9740282520019394	0.2720679396165047	1.212380831234263	-4.584717413192998	0.01124122555885444	-1.368003508106285	0.7687090403223884	-4.053274283946942	-4.053274283947231	-0.210387341838665	-0.01287473244300717	-0.7021019921799166	-0.2196245506356306	-3.157401462836755e-08	-6.253586077560919e-08	1.001904079629808e-07	1.614916694612944e-08	-4.815577220457632e-08	7.554017145822592e-08	-2.850658551471056e-08
